<mxfile host="app.diagrams.net" agent="Mozilla/5.0 (Windows NT 10.0; Win64; x64) AppleWebKit/537.36 (KHTML, like Gecko) Chrome/127.0.0.0 Safari/537.36 OPR/113.0.0.0" version="24.7.17">
  <diagram id="C5RBs43oDa-KdzZeNtuy" name="Page-1">
    <mxGraphModel dx="2259" dy="1951" grid="1" gridSize="10" guides="1" tooltips="1" connect="1" arrows="1" fold="1" page="1" pageScale="1" pageWidth="827" pageHeight="1169" math="0" shadow="0">
      <root>
        <mxCell id="WIyWlLk6GJQsqaUBKTNV-0" />
        <mxCell id="WIyWlLk6GJQsqaUBKTNV-1" parent="WIyWlLk6GJQsqaUBKTNV-0" />
        <mxCell id="WIyWlLk6GJQsqaUBKTNV-8" value="" style="rounded=0;html=1;jettySize=auto;orthogonalLoop=1;fontSize=11;endArrow=block;endFill=0;endSize=8;strokeWidth=1;shadow=0;labelBackgroundColor=none;edgeStyle=orthogonalEdgeStyle;entryX=0.5;entryY=0;entryDx=0;entryDy=0;" parent="WIyWlLk6GJQsqaUBKTNV-1" source="WIyWlLk6GJQsqaUBKTNV-12" target="WIyWlLk6GJQsqaUBKTNV-11" edge="1">
          <mxGeometry x="0.33" y="20" relative="1" as="geometry">
            <mxPoint as="offset" />
          </mxGeometry>
        </mxCell>
        <mxCell id="vxd6oPJRLpmrJG4T1CPl-4" value="" style="edgeStyle=orthogonalEdgeStyle;rounded=0;orthogonalLoop=1;jettySize=auto;html=1;" edge="1" parent="WIyWlLk6GJQsqaUBKTNV-1" source="WIyWlLk6GJQsqaUBKTNV-11">
          <mxGeometry relative="1" as="geometry">
            <mxPoint x="510" y="470" as="targetPoint" />
            <Array as="points">
              <mxPoint x="510" y="395" />
              <mxPoint x="511" y="395" />
            </Array>
          </mxGeometry>
        </mxCell>
        <mxCell id="WIyWlLk6GJQsqaUBKTNV-11" value="Диагнозы" style="rounded=1;whiteSpace=wrap;html=1;fontSize=12;glass=0;strokeWidth=1;shadow=0;" parent="WIyWlLk6GJQsqaUBKTNV-1" vertex="1">
          <mxGeometry x="450" y="330" width="120" height="40" as="geometry" />
        </mxCell>
        <mxCell id="vxd6oPJRLpmrJG4T1CPl-49" style="edgeStyle=orthogonalEdgeStyle;rounded=0;orthogonalLoop=1;jettySize=auto;html=1;entryX=0;entryY=0.5;entryDx=0;entryDy=0;" edge="1" parent="WIyWlLk6GJQsqaUBKTNV-1" source="WIyWlLk6GJQsqaUBKTNV-7" target="WIyWlLk6GJQsqaUBKTNV-12">
          <mxGeometry relative="1" as="geometry" />
        </mxCell>
        <mxCell id="WIyWlLk6GJQsqaUBKTNV-7" value="График" style="rounded=1;whiteSpace=wrap;html=1;fontSize=12;glass=0;strokeWidth=1;shadow=0;" parent="WIyWlLk6GJQsqaUBKTNV-1" vertex="1">
          <mxGeometry x="60" y="90" width="120" height="40" as="geometry" />
        </mxCell>
        <mxCell id="vxd6oPJRLpmrJG4T1CPl-48" style="edgeStyle=orthogonalEdgeStyle;rounded=0;orthogonalLoop=1;jettySize=auto;html=1;exitX=1;exitY=0.5;exitDx=0;exitDy=0;entryX=0;entryY=0.5;entryDx=0;entryDy=0;" edge="1" parent="WIyWlLk6GJQsqaUBKTNV-1" source="vxd6oPJRLpmrJG4T1CPl-2" target="WIyWlLk6GJQsqaUBKTNV-7">
          <mxGeometry relative="1" as="geometry">
            <mxPoint x="-20" y="120" as="targetPoint" />
            <Array as="points">
              <mxPoint x="-90" y="110" />
              <mxPoint x="-90" y="121" />
              <mxPoint x="60" y="121" />
            </Array>
          </mxGeometry>
        </mxCell>
        <object label="" id="vxd6oPJRLpmrJG4T1CPl-2">
          <mxCell style="rounded=0;whiteSpace=wrap;html=1;" vertex="1" parent="WIyWlLk6GJQsqaUBKTNV-1">
            <mxGeometry x="-280" y="80" width="120" height="60" as="geometry" />
          </mxCell>
        </object>
        <mxCell id="vxd6oPJRLpmrJG4T1CPl-6" value="" style="edgeStyle=orthogonalEdgeStyle;rounded=0;orthogonalLoop=1;jettySize=auto;html=1;" edge="1" parent="WIyWlLk6GJQsqaUBKTNV-1" target="vxd6oPJRLpmrJG4T1CPl-5">
          <mxGeometry relative="1" as="geometry">
            <mxPoint x="510" y="460" as="sourcePoint" />
          </mxGeometry>
        </mxCell>
        <mxCell id="vxd6oPJRLpmrJG4T1CPl-55" style="edgeStyle=orthogonalEdgeStyle;rounded=0;orthogonalLoop=1;jettySize=auto;html=1;exitX=0.5;exitY=0;exitDx=0;exitDy=0;" edge="1" parent="WIyWlLk6GJQsqaUBKTNV-1" source="vxd6oPJRLpmrJG4T1CPl-5" target="vxd6oPJRLpmrJG4T1CPl-29">
          <mxGeometry relative="1" as="geometry">
            <mxPoint x="-220" y="150" as="targetPoint" />
          </mxGeometry>
        </mxCell>
        <mxCell id="vxd6oPJRLpmrJG4T1CPl-5" value="Пациент" style="rounded=0;whiteSpace=wrap;html=1;" vertex="1" parent="WIyWlLk6GJQsqaUBKTNV-1">
          <mxGeometry x="-280" y="430" width="120" height="60" as="geometry" />
        </mxCell>
        <mxCell id="WIyWlLk6GJQsqaUBKTNV-12" value="Врач" style="rounded=1;whiteSpace=wrap;html=1;fontSize=12;glass=0;strokeWidth=1;shadow=0;" parent="WIyWlLk6GJQsqaUBKTNV-1" vertex="1">
          <mxGeometry x="450" y="90" width="120" height="40" as="geometry" />
        </mxCell>
        <mxCell id="vxd6oPJRLpmrJG4T1CPl-56" style="edgeStyle=orthogonalEdgeStyle;rounded=0;orthogonalLoop=1;jettySize=auto;html=1;entryX=0;entryY=0.75;entryDx=0;entryDy=0;" edge="1" parent="WIyWlLk6GJQsqaUBKTNV-1" source="vxd6oPJRLpmrJG4T1CPl-9" target="WIyWlLk6GJQsqaUBKTNV-11">
          <mxGeometry relative="1" as="geometry" />
        </mxCell>
        <mxCell id="vxd6oPJRLpmrJG4T1CPl-9" value="Мед карты" style="rounded=0;whiteSpace=wrap;html=1;" vertex="1" parent="WIyWlLk6GJQsqaUBKTNV-1">
          <mxGeometry x="-60" y="330" width="120" height="60" as="geometry" />
        </mxCell>
        <mxCell id="vxd6oPJRLpmrJG4T1CPl-53" style="edgeStyle=orthogonalEdgeStyle;rounded=0;orthogonalLoop=1;jettySize=auto;html=1;" edge="1" parent="WIyWlLk6GJQsqaUBKTNV-1" source="vxd6oPJRLpmrJG4T1CPl-10">
          <mxGeometry relative="1" as="geometry">
            <mxPoint x="180" y="240" as="targetPoint" />
          </mxGeometry>
        </mxCell>
        <mxCell id="vxd6oPJRLpmrJG4T1CPl-10" value="Сотрудники" style="rounded=0;whiteSpace=wrap;html=1;" vertex="1" parent="WIyWlLk6GJQsqaUBKTNV-1">
          <mxGeometry x="-10" y="210" width="120" height="60" as="geometry" />
        </mxCell>
        <mxCell id="vxd6oPJRLpmrJG4T1CPl-11" style="edgeStyle=orthogonalEdgeStyle;rounded=0;orthogonalLoop=1;jettySize=auto;html=1;exitX=0.5;exitY=1;exitDx=0;exitDy=0;" edge="1" parent="WIyWlLk6GJQsqaUBKTNV-1" source="vxd6oPJRLpmrJG4T1CPl-5" target="vxd6oPJRLpmrJG4T1CPl-5">
          <mxGeometry relative="1" as="geometry" />
        </mxCell>
        <mxCell id="vxd6oPJRLpmrJG4T1CPl-29" value="Список посещений" style="text;html=1;align=center;verticalAlign=middle;whiteSpace=wrap;rounded=0;" vertex="1" parent="WIyWlLk6GJQsqaUBKTNV-1">
          <mxGeometry x="-260" y="85" width="83" height="55" as="geometry" />
        </mxCell>
        <mxCell id="vxd6oPJRLpmrJG4T1CPl-34" value="" style="edgeStyle=orthogonalEdgeStyle;rounded=0;orthogonalLoop=1;jettySize=auto;html=1;" edge="1" parent="WIyWlLk6GJQsqaUBKTNV-1" source="vxd6oPJRLpmrJG4T1CPl-33" target="vxd6oPJRLpmrJG4T1CPl-29">
          <mxGeometry relative="1" as="geometry" />
        </mxCell>
        <mxCell id="vxd6oPJRLpmrJG4T1CPl-33" value="Номер&lt;div&gt;Дата&lt;/div&gt;&lt;div&gt;диагноз&lt;/div&gt;" style="ellipse;whiteSpace=wrap;html=1;" vertex="1" parent="WIyWlLk6GJQsqaUBKTNV-1">
          <mxGeometry x="-278" y="-30" width="120" height="80" as="geometry" />
        </mxCell>
        <mxCell id="vxd6oPJRLpmrJG4T1CPl-36" value="" style="edgeStyle=orthogonalEdgeStyle;rounded=0;orthogonalLoop=1;jettySize=auto;html=1;" edge="1" parent="WIyWlLk6GJQsqaUBKTNV-1" source="vxd6oPJRLpmrJG4T1CPl-35" target="WIyWlLk6GJQsqaUBKTNV-7">
          <mxGeometry relative="1" as="geometry" />
        </mxCell>
        <mxCell id="vxd6oPJRLpmrJG4T1CPl-35" value="Врач&lt;div&gt;Дата&lt;/div&gt;&lt;div&gt;Пациент&lt;/div&gt;" style="ellipse;whiteSpace=wrap;html=1;" vertex="1" parent="WIyWlLk6GJQsqaUBKTNV-1">
          <mxGeometry x="60" y="-30" width="120" height="80" as="geometry" />
        </mxCell>
        <mxCell id="vxd6oPJRLpmrJG4T1CPl-38" value="" style="edgeStyle=orthogonalEdgeStyle;rounded=0;orthogonalLoop=1;jettySize=auto;html=1;" edge="1" parent="WIyWlLk6GJQsqaUBKTNV-1" source="vxd6oPJRLpmrJG4T1CPl-37" target="WIyWlLk6GJQsqaUBKTNV-12">
          <mxGeometry relative="1" as="geometry" />
        </mxCell>
        <mxCell id="vxd6oPJRLpmrJG4T1CPl-37" value="Телефон&lt;div&gt;ФИО&lt;/div&gt;&lt;div&gt;Год рождения&lt;/div&gt;&lt;div&gt;Специальность&lt;/div&gt;" style="ellipse;whiteSpace=wrap;html=1;" vertex="1" parent="WIyWlLk6GJQsqaUBKTNV-1">
          <mxGeometry x="450" y="-20" width="120" height="80" as="geometry" />
        </mxCell>
        <mxCell id="vxd6oPJRLpmrJG4T1CPl-40" value="" style="edgeStyle=orthogonalEdgeStyle;rounded=0;orthogonalLoop=1;jettySize=auto;html=1;" edge="1" parent="WIyWlLk6GJQsqaUBKTNV-1" source="vxd6oPJRLpmrJG4T1CPl-39" target="WIyWlLk6GJQsqaUBKTNV-11">
          <mxGeometry relative="1" as="geometry" />
        </mxCell>
        <mxCell id="vxd6oPJRLpmrJG4T1CPl-39" value="№ Болезни" style="ellipse;whiteSpace=wrap;html=1;" vertex="1" parent="WIyWlLk6GJQsqaUBKTNV-1">
          <mxGeometry x="620" y="310" width="120" height="80" as="geometry" />
        </mxCell>
        <mxCell id="vxd6oPJRLpmrJG4T1CPl-42" value="" style="edgeStyle=orthogonalEdgeStyle;rounded=0;orthogonalLoop=1;jettySize=auto;html=1;" edge="1" parent="WIyWlLk6GJQsqaUBKTNV-1" source="vxd6oPJRLpmrJG4T1CPl-41" target="vxd6oPJRLpmrJG4T1CPl-5">
          <mxGeometry relative="1" as="geometry" />
        </mxCell>
        <mxCell id="vxd6oPJRLpmrJG4T1CPl-41" value="ФИО&lt;div&gt;Номер&lt;/div&gt;&lt;div&gt;Мед карта&lt;/div&gt;&lt;div&gt;Диагнозы&lt;/div&gt;&lt;div&gt;Информация&lt;/div&gt;" style="ellipse;whiteSpace=wrap;html=1;" vertex="1" parent="WIyWlLk6GJQsqaUBKTNV-1">
          <mxGeometry x="-280" y="545" width="120" height="80" as="geometry" />
        </mxCell>
        <mxCell id="vxd6oPJRLpmrJG4T1CPl-44" value="" style="edgeStyle=orthogonalEdgeStyle;rounded=0;orthogonalLoop=1;jettySize=auto;html=1;" edge="1" parent="WIyWlLk6GJQsqaUBKTNV-1" source="vxd6oPJRLpmrJG4T1CPl-43" target="vxd6oPJRLpmrJG4T1CPl-9">
          <mxGeometry relative="1" as="geometry" />
        </mxCell>
        <mxCell id="vxd6oPJRLpmrJG4T1CPl-43" value="№Пациента&lt;div&gt;ФИО&lt;/div&gt;" style="ellipse;whiteSpace=wrap;html=1;" vertex="1" parent="WIyWlLk6GJQsqaUBKTNV-1">
          <mxGeometry x="-80" y="265" width="80" height="45" as="geometry" />
        </mxCell>
        <mxCell id="vxd6oPJRLpmrJG4T1CPl-46" value="" style="edgeStyle=orthogonalEdgeStyle;rounded=0;orthogonalLoop=1;jettySize=auto;html=1;" edge="1" parent="WIyWlLk6GJQsqaUBKTNV-1" source="vxd6oPJRLpmrJG4T1CPl-45" target="vxd6oPJRLpmrJG4T1CPl-10">
          <mxGeometry relative="1" as="geometry" />
        </mxCell>
        <mxCell id="vxd6oPJRLpmrJG4T1CPl-45" value="ФИО&lt;div&gt;Должность&lt;/div&gt;" style="ellipse;whiteSpace=wrap;html=1;" vertex="1" parent="WIyWlLk6GJQsqaUBKTNV-1">
          <mxGeometry x="5" y="150" width="90" height="40" as="geometry" />
        </mxCell>
        <mxCell id="vxd6oPJRLpmrJG4T1CPl-52" value="" style="endArrow=classic;html=1;rounded=0;entryX=0.917;entryY=1;entryDx=0;entryDy=0;entryPerimeter=0;" edge="1" parent="WIyWlLk6GJQsqaUBKTNV-1" target="WIyWlLk6GJQsqaUBKTNV-7">
          <mxGeometry width="50" height="50" relative="1" as="geometry">
            <mxPoint x="170" y="250" as="sourcePoint" />
            <mxPoint x="230" y="200" as="targetPoint" />
          </mxGeometry>
        </mxCell>
        <mxCell id="vxd6oPJRLpmrJG4T1CPl-54" value="" style="endArrow=classic;html=1;rounded=0;entryX=0;entryY=0.5;entryDx=0;entryDy=0;" edge="1" parent="WIyWlLk6GJQsqaUBKTNV-1" target="vxd6oPJRLpmrJG4T1CPl-9">
          <mxGeometry width="50" height="50" relative="1" as="geometry">
            <mxPoint x="-160" y="430" as="sourcePoint" />
            <mxPoint x="-110" y="380" as="targetPoint" />
          </mxGeometry>
        </mxCell>
        <mxCell id="vxd6oPJRLpmrJG4T1CPl-57" value="" style="endArrow=classic;html=1;rounded=0;entryX=0;entryY=0.5;entryDx=0;entryDy=0;exitX=1;exitY=1;exitDx=0;exitDy=0;" edge="1" parent="WIyWlLk6GJQsqaUBKTNV-1" source="vxd6oPJRLpmrJG4T1CPl-2" target="vxd6oPJRLpmrJG4T1CPl-10">
          <mxGeometry width="50" height="50" relative="1" as="geometry">
            <mxPoint x="-120" y="200" as="sourcePoint" />
            <mxPoint x="-70" y="150" as="targetPoint" />
          </mxGeometry>
        </mxCell>
      </root>
    </mxGraphModel>
  </diagram>
</mxfile>
